<svg xmlns="http://www.w3.org/2000/svg" version="1.1" xmlns:xlink="http://www.w3.org/1999/xlink" xmlns:svgjs="http://svgjs.dev/svgjs" width="308.7612359841165" height="304.915625" viewBox="0 0 106.00782394174519 104.68749999999999"><g transform="matrix(1,0,0,1,1.7053025658242404e-13,0)"><svg viewBox="0 0 320 360" data-background-color="#ffffff" preserveAspectRatio="xMidYMid meet" height="1125" width="1000" xmlns="http://www.w3.org/2000/svg" xmlns:xlink="http://www.w3.org/1999/xlink"><g id="tight-bounds" transform="matrix(1,0,0,1,0,0)"><svg viewBox="0 0 320 360" height="360" width="320"><g><svg></svg></g><g><svg viewBox="0 0 320 360" height="360" width="320"><g><path xmlns="http://www.w3.org/2000/svg" d="M20.961 227.22l3.726 4.658-1.863-6.056c-0.466-2.795-3.726 0.466-1.863 1.398M25.153 224.425c1.397 2.329 2.795 4.658 2.795 6.987 0 3.261 2.795 4.658 5.123 5.589-3.261-3.726-5.124-13.974-7.918-12.576M204.017 26.929c7.918 0 15.371-0.932 23.756 0.931 20.495 5.124 37.729 15.371 49.374 29.811l32.606 52.169c1.397 13.042 4.192 27.482 3.726 43.319 3.261 0 2.795-4.658 6.521-5.59-3.726 9.316-5.59 20.961-6.521 34.469-2.329-7.453 0-18.632 0.466-24.687-3.261 5.124-5.124 1.397-5.124-0.932 0.466-3.726-1.397-3.261-2.795-4.658-5.124-4.658-8.384-9.782-12.11-17.7 2.329-6.055 2.795-14.905-4.658-19.563-2.329-1.397-5.124-3.726-6.521-7.453-1.863-5.124-5.124-11.179-4.193-19.097 0.466-2.329-6.987 5.124-11.179 1.863-18.166-12.576-36.332-27.016-58.224-39.127-11.645 0-20.029-4.192-24.221-9.316-3.726-4.658-0.932-10.713 4.658-11.179 3.261 0 6.987-0.932 9.782 0.932 0.466-1.863 2.329-4.192 4.657-4.192M157.904 16.215l0.932 0.466c4.658 0.932 6.987 7.453 12.11 5.124 0 3.261 0.466 6.521-0.466 8.85-1.397 3.726-5.59 3.726-8.85 3.726-31.208-1.863-49.374 11.179-68.471 22.358-5.124 3.261-10.713 5.59-14.906 9.782-20.029 18.632-41.921 35.866-47.045 70.335l-4.192 38.195c-0.466 4.192-5.124 8.384-4.192 13.508l3.26 22.824c-3.261-3.261-5.124 0.932-4.192 2.795 0.466 1.397 2.329 6.055 5.124 1.863 3.726 6.987 7.453 20.495 12.576 26.55 15.837 18.632 36.332 35.4 53.101 52.169 4.192-0.932 7.453-0.932 8.384-3.727 1.397 2.795-1.397 5.59-3.726 6.056 7.453 4.658 15.837 8.85 27.016 9.781 14.44 0.932 27.948 3.261 40.524 6.522 6.521-1.863 13.042-2.795 20.029-3.261 2.329 0 3.726-3.726 6.521-4.658l0.466-4.658c2.795 4.192 2.329-1.397 0.466-4.192 3.261 2.795 4.192 5.124 5.589 6.987 0-1.397 3.726-6.521 3.727-0.466l0.931-6.055c1.397-0.932 1.863 5.124 3.261 0.931 1.397-4.192 4.192-0.932 6.987-2.329-0.932 1.863-0.466 5.59 2.794 3.261l3.727-3.261c2.329 5.59 6.055 3.261 7.918 2.329 20.495-13.042 40.99-28.413 60.553-43.784l-0.466 6.055 2.329-7.453c2.329 2.329 4.192 0.466 5.124-0.931 2.795-4.658 6.521-9.316 12.577-13.508-7.453 20.029-16.303 35.866-27.482 48.908l-4.658 5.59c0 3.261-0.932 7.453-4.658 7.918-1.863 0.466-5.59-0.932-8.384 1.863-1.397 1.863 3.261 5.59-0.466 2.795-3.261-2.329-6.521 0-10.248 0.932-2.795 0.932 1.863 3.726 2.795 5.589 0.932 1.863 1.863 3.726 1.398 6.056l-5.124-5.59c-6.055 3.261-9.782 9.316-14.906 13.974-2.329 1.863-1.397 5.124-1.397 7.918-3.261 0-6.987-0.932-8.85 0.932-1.397 1.863-0.932 4.658-0.932 7.453-4.658-0.466-5.124-7.453-9.315-6.056-4.192 0.932-8.85 1.397-12.577 3.727 2.795 5.59-4.658 2.329-3.726 3.26-6.987-4.192-13.042-7.453-20.495-4.658-15.837-5.124-35.4-2.795-49.84-0.931 0-2.329 0.466-4.658-0.466-5.124-0.932 2.329-3.726 1.397-3.26 1.397-8.85-6.055-17.7-9.782-27.016-14.905-8.384 0.932-16.303-3.261-18.632-5.59-6.521-6.055-13.974-2.795-20.029-4.192-13.042-3.261-17.7-16.769-19.098-26.084-0.932-4.658-4.658-6.521-6.055-6.056-6.055-19.563-15.371-37.263-22.824-55.429-1.863-4.658-1.397-9.316-1.397-14.44 2.329 0.932 4.658 0.466 4.192-2.794-2.329-15.371-7.918-27.016-13.974-38.195 3.261-15.837 3.726-34.469 11.179-48.443 6.521-12.576 18.632-19.098 27.016-29.811 2.795-3.726 2.795-8.85 5.59-12.11 9.316-9.316 18.632-19.098 28.879-27.482 4.658-3.726 10.247 0 17.234-1.397 2.329-8.384 11.645-15.837 20.495-13.508 3.726 0.932 11.179-8.85 13.508-9.782 3.726-1.397 1.863 3.726 1.863 6.987 8.85-6.987 20.961-10.713 32.14-14.906" fill="#e8772e" fill-rule="nonzero" stroke="none" stroke-width="1" stroke-linecap="butt" stroke-linejoin="miter" stroke-miterlimit="10" stroke-dasharray="" stroke-dashoffset="0" font-family="none" font-weight="none" font-size="none" text-anchor="none" style="mix-blend-mode: normal" data-fill-palette-color="tertiary"></path></g><g transform="matrix(1,0,0,1,64,122.50049086083382)"><svg viewBox="0 0 192 114.99901827833236" height="114.99901827833236" width="192"><g><svg viewBox="0 0 192 114.99901827833236" height="114.99901827833236" width="192"><g><svg viewBox="0 0 192 114.99901827833236" height="114.99901827833236" width="192"><g transform="matrix(1,0,0,1,0,69.50753266470934)"><svg viewBox="0 0 192 45.49148561362302" height="45.49148561362302" width="192"><g id="textblocktransform"><svg viewBox="0 0 192 45.49148561362302" height="45.49148561362302" width="192" id="textblock"><g><svg viewBox="0 0 192 45.49148561362302" height="45.49148561362302" width="192"><g transform="matrix(1,0,0,1,0,0)"><svg width="192" viewBox="-0.6500000357627869 -36 170.2899932861328 40.349998474121094" height="45.49148561362302" data-palette-color="#e8772e"><path d="M-0.65 4.35L-0.65 4.35Q-0.35 3.65 0.95 0.78 2.25-2.1 4.4-6.78 6.55-11.45 9.3-17.55 12.05-23.65 15.25-30.75L15.25-30.75Q15.45-31.15 15.6-31.68 15.75-32.2 15.75-32.7L15.75-32.7Q15.75-33.2 15.43-33.55 15.1-33.9 14.15-33.9L14.15-33.9Q12.05-33.9 10.68-32.52 9.3-31.15 8.65-29.15 8-27.15 8-25.15L8-25.15Q8-24.7 8.03-24.25 8.05-23.8 8.15-23.35L8.15-23.35Q7.1-23.35 6.45-24.03 5.8-24.7 5.5-25.73 5.2-26.75 5.2-27.6L5.2-27.6Q5.2-29.2 6.1-30.7 7-32.2 8.45-33.43 9.9-34.65 11.65-35.33 13.4-36 15.1-36L15.1-36Q16.85-36 18.03-35.05 19.2-34.1 19.83-31.6 20.45-29.1 20.45-24.4L20.45-24.4Q20.45-21.25 20.23-17.8 20-14.35 19.75-11.13 19.5-7.9 19.4-5.35L19.4-5.35Q20.3-8.35 21.78-11.78 23.25-15.2 25-18.57 26.75-21.95 28.45-24.9 30.15-27.85 31.53-30.05 32.9-32.25 33.6-33.25L33.6-33.25Q34.3-34.3 34.8-34.83 35.3-35.35 36.15-35.35L36.15-35.35Q36.85-35.35 37.95-34.95L37.95-34.95Q37.6-34.05 36.98-32.18 36.35-30.3 35.7-27.65L35.7-27.65Q34.9-24.65 34.13-20.88 33.35-17.1 32.7-13.2 32.05-9.3 31.65-5.88 31.25-2.45 31.25 0L31.25 0Q31.25 1.15 31.35 1.8 31.45 2.45 31.65 2.98 31.85 3.5 32.1 4.35L32.1 4.35Q30.25 4.35 29.28 3.78 28.3 3.2 27.98 1.9 27.65 0.6 27.65-1.55L27.65-1.55Q27.65-7.35 29.08-13.95 30.5-20.55 32.4-27.6L32.4-27.6Q30.95-25.7 29.4-22.9 27.85-20.1 26.33-16.9 24.8-13.7 23.4-10.53 22-7.35 20.95-4.65 19.9-1.95 19.3-0.15L19.3-0.15Q18.95-0.05 18.82 0 18.7 0.05 18.45 0.05L18.45 0.05Q16.95 0.05 16.53-1.73 16.1-3.5 16.1-6.65L16.1-6.65Q16.1-8.65 16.2-11.28 16.3-13.9 16.43-16.68 16.55-19.45 16.65-22.08 16.75-24.7 16.75-26.75L16.75-26.75Q16.75-27.65 16.73-28.33 16.7-29 16.65-29.6L16.65-29.6Q12.75-20.45 10.08-13.98 7.4-7.5 5.55-3.45 3.7 0.6 2.25 2.48 0.8 4.35-0.65 4.35ZM43.1 2.2L43.1 2.2Q40 2.2 38.4 0.5 36.8-1.2 36.8-3.7L36.8-3.7Q36.8-5.9 37.92-8.4 39.05-10.9 40.92-13.1 42.8-15.3 45.07-16.65 47.35-18 49.6-18L49.6-18Q50.8-18 51.82-17.38 52.85-16.75 52.85-14.85L52.85-14.85Q52.85-12.95 51.75-11.3 50.65-9.65 48.8-8.35 46.95-7.05 44.77-6.23 42.6-5.4 40.4-5.15L40.4-5.15Q40.3-4.75 40.27-4.38 40.25-4 40.25-3.6L40.25-3.6Q40.25-3 40.37-2.3 40.5-1.6 40.92-0.95 41.35-0.3 42.12 0.1 42.9 0.5 44.15 0.5L44.15 0.5Q46.3 0.5 48.4-0.7 50.5-1.9 52.32-3.88 54.15-5.85 55.4-8.25L55.4-8.25 56.15-7.7Q54.8-4.7 52.7-2.48 50.6-0.25 48.12 0.98 45.65 2.2 43.1 2.2ZM40.75-6.4L40.75-6.4Q42.1-6.75 43.75-7.6 45.4-8.45 46.95-9.63 48.5-10.8 49.5-12.23 50.5-13.65 50.5-15.2L50.5-15.2Q50.5-15.75 50.3-16 50.1-16.25 49.5-16.25L49.5-16.25Q48.35-16.25 47.02-15.38 45.7-14.5 44.47-13.05 43.25-11.6 42.25-9.88 41.25-8.15 40.75-6.4ZM56.7 1.9L56.7 1.9Q55.7 1.9 55.17 0.28 54.65-1.35 54.65-3.45L54.65-3.45Q54.65-5.8 55.42-9.1 56.2-12.4 57.52-16.03 58.85-19.65 60.47-23.13 62.1-26.6 63.8-29.45 65.5-32.3 67.02-34 68.55-35.7 69.7-35.7L69.7-35.7Q70.65-35.7 71.07-34.6 71.5-33.5 71.5-32.4L71.5-32.4Q71.5-31.05 70.87-29.05 70.25-27.05 69.15-24.78 68.05-22.5 66.6-20.33 65.15-18.15 63.42-16.32 61.7-14.5 59.95-13.45L59.95-13.45Q59.3-11.9 58.9-10.2 58.5-8.5 58.32-6.93 58.15-5.35 58.15-4.05L58.15-4.05Q58.15-3.6 58.17-3.23 58.2-2.85 58.2-2.55L58.2-2.55Q58.75-4 59.45-5.7 60.15-7.4 61.05-9.05 61.95-10.7 63.05-12.05 64.15-13.4 65.45-14.23 66.75-15.05 68.35-15.05L68.35-15.05Q69.85-15.05 70.7-14.33 71.55-13.6 71.95-12.55 72.35-11.5 72.35-10.4L72.35-10.4Q72.35-8.8 71.82-7.38 71.3-5.95 70.75-4.65 70.2-3.35 70.2-2.15L70.2-2.15Q70.2-1.15 70.62-0.75 71.05-0.35 71.65-0.35L71.65-0.35Q72.8-0.35 74.22-1.45 75.65-2.55 77.07-4.38 78.5-6.2 79.55-8.35L79.55-8.35 80.25-7.65Q79.15-5.2 77.62-3.18 76.1-1.15 74.3 0.03 72.5 1.2 70.45 1.2L70.45 1.2Q68.7 1.2 67.77 0.28 66.85-0.65 66.85-2.05L66.85-2.05Q66.85-3.1 67.25-4.4 67.65-5.7 68.02-7.03 68.4-8.35 68.4-9.5L68.4-9.5Q68.4-10.8 67.85-11.3 67.3-11.8 66.5-11.8L66.5-11.8Q65.25-11.8 64.25-10.83 63.25-9.85 62.45-8.28 61.65-6.7 60.92-4.95 60.2-3.2 59.52-1.65 58.85-0.1 58.17 0.9 57.5 1.9 56.7 1.9ZM60.7-15.8L60.7-15.8Q62.1-16.9 63.37-18.57 64.65-20.25 65.75-22.1 66.85-23.95 67.72-25.73 68.6-27.5 69.07-28.95 69.55-30.4 69.55-31.1L69.55-31.1Q69.55-31.3 69.52-31.35 69.5-31.4 69.45-31.45L69.45-31.45Q69.1-31.45 68.05-30.13 67-28.8 65.65-26.58 64.3-24.35 62.97-21.55 61.65-18.75 60.7-15.8ZM87.29 1.3L87.29 1.3Q85.54 1.3 84.52 0.38 83.49-0.55 83.49-2.05L83.49-2.05Q83.49-3.55 84.19-5.18 84.89-6.8 85.57-8.4 86.24-10 86.24-11.25L86.24-11.25Q86.24-12.7 85.39-13.48 84.54-14.25 83.54-14.85L83.54-14.85Q82.44-12 81.14-9.38 79.84-6.75 79.04-5.35L79.04-5.35 78.49-6.4Q79.19-7.7 80.32-10.18 81.44-12.65 82.54-15.75L82.54-15.75Q82.04-16.25 82.04-17L82.04-17Q82.04-18.45 82.87-19.45 83.69-20.45 84.19-20.45L84.19-20.45Q84.79-20.45 84.92-19.93 85.04-19.4 85.04-19.15L85.04-19.15Q85.04-18.9 84.79-18.2 84.54-17.5 84.49-17.3L84.49-17.3Q84.54-16.65 85.32-16.07 86.09-15.5 87.12-14.8 88.14-14.1 88.92-13.05 89.69-12 89.69-10.4L89.69-10.4Q89.69-8.95 89.07-7.4 88.44-5.85 87.82-4.5 87.19-3.15 87.19-2.1L87.19-2.1Q87.19-1.3 87.62-1.03 88.04-0.75 88.59-0.75L88.59-0.75Q89.79-0.75 91.07-1.48 92.34-2.2 93.57-3.35 94.79-4.5 95.74-5.78 96.69-7.05 97.14-8.15L97.14-8.15 97.99-7.5Q97.04-5.4 95.34-3.35 93.64-1.3 91.57 0 89.49 1.3 87.29 1.3ZM99.19 1.5L99.19 1.5Q98.34 1.5 97.42 1.05 96.49 0.6 95.89-0.35 95.29-1.3 95.29-2.8L95.29-2.8Q95.29-4.45 96.09-6.5 96.89-8.55 98.24-10.58 99.59-12.6 101.37-14.33 103.14-16.05 105.09-17.07 107.04-18.1 108.99-18.1L108.99-18.1Q110.09-18.1 110.69-17.73 111.29-17.35 111.29-16.55L111.29-16.55Q111.29-16.35 111.24-16.13 111.19-15.9 110.99-15.7L110.99-15.7Q110.79-16.05 110.29-16.23 109.79-16.4 109.14-16.4L109.14-16.4Q107.54-16.4 106.02-15.43 104.49-14.45 103.24-12.93 101.99-11.4 101.04-9.63 100.09-7.85 99.57-6.23 99.04-4.6 99.04-3.45L99.04-3.45Q99.04-2.4 99.52-1.78 99.99-1.15 100.79-1.15L100.79-1.15Q102.14-1.15 104.04-2.8 105.94-4.45 107.94-7.5 109.94-10.55 111.54-14.7L111.54-14.7Q112.64-17.6 113.82-20.6 114.99-23.6 116.19-26.35 117.39-29.1 118.54-31.28 119.69-33.45 120.74-34.73 121.79-36 122.59-36L122.59-36Q123.04-36 123.39-35.65 123.74-35.3 123.74-34.75L123.74-34.75Q123.74-33.9 122.92-32 122.09-30.1 120.79-27.45 119.49-24.8 118.02-21.7 116.54-18.6 115.24-15.38 113.94-12.15 113.12-9.1 112.29-6.05 112.29-3.5L112.29-3.5Q112.29-2.15 112.47-1.55 112.64-0.95 113.39-0.95L113.39-0.95Q114.44-0.95 115.84-1.83 117.24-2.7 118.64-4.35 120.04-6 121.09-8.35L121.09-8.35 121.84-7.75Q120.84-5.15 119.17-3.1 117.49-1.05 115.59 0.13 113.69 1.3 111.94 1.3L111.94 1.3Q109.99 1.3 109.24 0.05 108.49-1.2 108.49-2.65L108.49-2.65Q108.49-3.5 108.72-4.7 108.94-5.9 109.29-7.3L109.29-7.3Q107.69-4.8 105.92-2.78 104.14-0.75 102.44 0.38 100.74 1.5 99.19 1.5ZM122.59 2.35L122.59 2.35Q120.99 2.35 119.86 1.3 118.74 0.25 118.74-1.9L118.74-1.9Q118.74-3.65 119.54-5.73 120.34-7.8 121.74-9.83 123.14-11.85 124.91-13.5 126.69-15.15 128.69-16.15 130.69-17.15 132.69-17.15L132.69-17.15Q134.69-17.15 136.06-16.1 137.44-15.05 137.44-13.3L137.44-13.3Q137.44-12.05 136.66-11.55 135.89-11.05 134.74-11.1L134.74-11.1Q134.84-11.55 134.91-12 134.99-12.45 134.99-12.9L134.99-12.9Q134.99-14 134.49-14.83 133.99-15.65 132.64-15.65L132.64-15.65Q131.24-15.65 129.79-14.68 128.34-13.7 127.01-12.1 125.69-10.5 124.64-8.63 123.59-6.75 122.99-4.95 122.39-3.15 122.39-1.7L122.39-1.7Q122.39 0.15 123.64 0.15L123.64 0.15Q124.79 0.15 126.16-0.95 127.54-2.05 128.96-3.73 130.39-5.4 131.69-7.2 132.99-9 133.99-10.4L133.99-10.4Q134.14-10.7 134.29-10.7L134.29-10.7Q134.54-10.65 135.04-10.5 135.54-10.35 135.94-10.05 136.34-9.75 136.34-9.3L136.34-9.3Q136.34-8.85 135.91-8.08 135.49-7.3 134.91-6.33 134.34-5.35 133.91-4.35 133.49-3.35 133.49-2.5L133.49-2.5Q133.49-1.75 133.86-1.07 134.24-0.4 135.09-0.4L135.09-0.4Q136.39-0.4 138.59-2.33 140.79-4.25 143.04-8.3L143.04-8.3 143.69-7.65Q142.59-4.95 140.94-2.88 139.29-0.8 137.41 0.35 135.54 1.5 133.69 1.5L133.69 1.5Q131.79 1.5 130.86 0.33 129.94-0.85 129.94-2.2L129.94-2.2Q129.94-2.45 129.96-2.7 129.99-2.95 130.04-3.25L130.04-3.25Q127.94-0.5 126.19 0.93 124.44 2.35 122.59 2.35ZM145.09 1.5L145.09 1.5Q144.24 1.5 143.31 1.05 142.39 0.6 141.79-0.35 141.19-1.3 141.19-2.8L141.19-2.8Q141.19-4.45 141.99-6.5 142.79-8.55 144.14-10.58 145.49-12.6 147.26-14.33 149.04-16.05 150.99-17.07 152.94-18.1 154.89-18.1L154.89-18.1Q155.99-18.1 156.59-17.73 157.19-17.35 157.19-16.55L157.19-16.55Q157.19-16.35 157.14-16.13 157.09-15.9 156.89-15.7L156.89-15.7Q156.69-16.05 156.19-16.23 155.69-16.4 155.04-16.4L155.04-16.4Q153.44-16.4 151.91-15.43 150.39-14.45 149.14-12.93 147.89-11.4 146.94-9.63 145.99-7.85 145.46-6.23 144.94-4.6 144.94-3.45L144.94-3.45Q144.94-2.4 145.41-1.78 145.89-1.15 146.69-1.15L146.69-1.15Q148.04-1.15 149.94-2.8 151.84-4.45 153.84-7.5 155.84-10.55 157.44-14.7L157.44-14.7Q158.54-17.6 159.71-20.6 160.89-23.6 162.09-26.35 163.29-29.1 164.44-31.28 165.59-33.45 166.64-34.73 167.69-36 168.49-36L168.49-36Q168.94-36 169.29-35.65 169.64-35.3 169.64-34.75L169.64-34.75Q169.64-33.9 168.81-32 167.99-30.1 166.69-27.45 165.39-24.8 163.91-21.7 162.44-18.6 161.14-15.38 159.84-12.15 159.01-9.1 158.19-6.05 158.19-3.5L158.19-3.5Q158.19-2.15 158.36-1.55 158.54-0.95 159.29-0.95L159.29-0.95Q160.34-0.95 161.74-1.83 163.14-2.7 164.54-4.35 165.94-6 166.99-8.35L166.99-8.35 167.74-7.75Q166.74-5.15 165.06-3.1 163.39-1.05 161.49 0.13 159.59 1.3 157.84 1.3L157.84 1.3Q155.89 1.3 155.14 0.05 154.39-1.2 154.39-2.65L154.39-2.65Q154.39-3.5 154.61-4.7 154.84-5.9 155.19-7.3L155.19-7.3Q153.59-4.8 151.81-2.78 150.04-0.75 148.34 0.38 146.64 1.5 145.09 1.5Z" opacity="1" transform="matrix(1,0,0,1,0,0)" fill="#e8772e" class="undefined-text-0" data-fill-palette-color="primary" id="text-0"></path></svg></g></svg></g></svg></g></svg></g><g transform="matrix(1,0,0,1,70.26722384861624,0)"><svg viewBox="0 0 51.46555230276752 62.86923311802702" height="62.86923311802702" width="51.46555230276752"><g><svg xmlns="http://www.w3.org/2000/svg" xmlns:xlink="http://www.w3.org/1999/xlink" version="1.1" x="0" y="0" viewBox="-70.85026550292969 302.8790283203125 73.67511749267578 89.99996948242188" enable-background="new -84.014 297.879 100 100" xml:space="preserve" height="62.86923311802702" width="51.46555230276752" class="icon-icon-0" data-fill-palette-color="accent" id="icon-0"><path d="M-7.098 370.437l3.246-7.345c0.066-0.131 0.113-0.271 0.14-0.415 0.183-1.02 0.32-2.072 0.43-3.14 0.298-0.046 0.588-0.133 0.837-0.3 4.143-2.791 6.26-11.848 4.818-16.571-0.833-2.727-2.858-4.106-5.398-3.737v-2.352c-1.076-16.23-6.745-22.556-14.041-28.563-0.699-0.449-1.397-0.866-2.098-1.255-0.414-0.257-0.9-0.51-1.446-0.755-4.208-2.081-8.531-3.104-13.411-3.125-6.32 0.027-10.727 0.73-17.108 5.241 0 0-12.96 9.272-13.872 30.074v0.71c-2.555-0.378-4.564 1.03-5.397 3.759-1.443 4.722 0.675 13.781 4.816 16.574 0.248 0.167 0.53 0.275 0.828 0.324 0.11 1.061 0.259 2.104 0.44 3.119 0.027 0.144 0.073 0.283 0.141 0.413 0 0 0.893 3.342 1.287 4.276 0 0 0.624 2.932 0.822 3.539 0.097 0.373 0.109 0.48 0.153 0.688 4.298 11.656 12.803 21.283 27.182 21.283 14.382 0 22.94-9.715 27.241-21.379C-7.489 371.5-7.304 370.903-7.098 370.437zM-67.591 343.522c0.532-1.744 1.429-1.744 1.767-1.744 0.215 0 0.454 0.033 0.713 0.098 0.037 0.007 0.074 0.016 0.109 0.023v12.756c0 0.006 0 0.011 0 0.013 0 0.381 0.005 0.761 0.013 1.138C-67.225 353.041-68.64 346.953-67.591 343.522zM-60.786 339.054c0.676-0.625 1.687-1.377 2.429-2.715 1.28-2.31 3.842-5.607 3.403-8.517-0.438-2.911-0.269-4.828-0.726-7.102-0.357-1.777 3.577-8.105 4.997-9.315 0.051-0.038 0.101-0.078 0.151-0.115 1.295-0.871 5.307-1.451 6.164-1.327 3.352 0.486 3.066 1.381 3.728 2.808 1.211 2.612 3.688 2.383 4.686-0.112 1.115-2.789 3.367-2.602 4.168 0.084 0.801 2.687 2.972 2.533 4.026 0.447 1.511-2.986 2.473-2.524 5.201-3.006 1.284-0.228 2.672-0.204 3.393 0.082 1.599 0.642 7.755 7.713 7.181 9.533-0.698 2.212-0.288 4.191-0.727 7.102-0.438 2.911 2.123 6.208 3.404 8.518 0.543 0.979 1.231 1.645 1.828 2.176v3.986l-5.429 1.971c-0.64-0.642-1.011-0.888-1.985-0.888h-13.08c-0.597 0-1.831 0.454-2.326 0.716-2.607-1.427-4.65-1.589-7.228-0.102-0.529-0.318-1.96-0.611-2.621-0.611h-13.079c-0.974 0-1.325 0.175-1.964 0.817l-5.595-1.966V339.054zM-13.197 349.676v1.372c0 0.933-0.76 1.694-1.694 1.694h-14.035c-0.936 0-1.693-0.761-1.693-1.694v-5.236c0-0.935 1.034-2.106 2.646-2.106h13.08c0.581 0 1.096 0.707 1.402 1.154 0.014 0.024 0.029 0.05 0.045 0.071 0.156 0.257 0.247 0.558 0.247 0.881v1.186L-13.197 349.676zM-37.652 345.813v5.236c0 0.934-0.76 1.694-1.695 1.694h-13.851c-0.935 0-1.695-0.761-1.695-1.694v-1.742l0.001-1.061v-2.434c0-0.323 0.09-0.625 0.247-0.881 0.247-0.881 1.405-1.175 1.405-1.175h13.85C-38.455 343.757-37.652 344.878-37.652 345.813zM-18.815 378.482c-0.055 0.604-0.796 1.514-1.553 2.163-0.756 0.649-7.023 4.279-14.207 4.279-7.185 0-13.721-3.602-14.519-4.279-0.798-0.677-1.021-0.984-1.355-2.12s2.222-6.629 2.59-6.85c0.368-0.221 1.482 0.171 3.154 0.134-0.081 0.083-0.173 0.154-0.232 0.259-0.417 0.709-0.14 1.604 0.621 1.998 2.457 1.264 6.027 1.989 9.794 1.989 3.768 0 7.337-0.725 9.793-1.989 0.762-0.393 1.04-1.289 0.622-1.998-0.069-0.122-0.174-0.207-0.272-0.304 2.402 0.06 3.644-0.093 4.418 0.022C-19.439 371.864-18.76 377.878-18.815 378.482zM-42.23 371.751c3.014-0.078 5.952-0.156 5.952-0.156l2.264-1.164 3.041 1.164c0 0 1.923 0.052 4.25 0.112-1.99 0.891-4.789 1.404-7.799 1.404C-37.486 373.111-40.244 372.618-42.23 371.751zM-61.18 358.081c0.205-0.246 0.395-14.616 0.395-14.616l4.988 1.473c-0.071 0.281-0.11 0.572-0.11 0.874v5.237c0 1.945 0.801 2.58 2.746 2.58h13.08c1.946 0 3.493-0.635 3.493-2.58v-5.237c0-0.597-0.162-1.15-0.425-1.643 1.8-0.864 4.154-0.907 5.999-0.122-0.302 0.522-0.491 1.119-0.491 1.764v5.237c0 1.945 0.651 2.595 2.599 2.595h13.078c1.946 0 3.724-0.479 3.724-2.424v-5.237c0-0.302-0.037-0.593-0.11-0.874l4.734-1.583c0 0 0.432 14.346 0.528 14.495s0.743-0.086 0.857-0.003-0.252 2.66-0.473 3.926l-3.265 7.424c-0.029-0.011-0.051-0.019-0.051-0.019-0.522 0.45-2.827 1.627-2.827 1.627s-2.901 4.04-3.288 4.147c-0.387 0.107-1.227-0.439-1.832-2.511-0.5-2.325-0.565-3.548-2.225-4.509s-9.158-1.645-9.158-1.645-1.474-0.254-2.792-0.355c0 0-2.721-0.062-3.508 0.021-1.244 0.111-2.527 0.336-2.527 0.336s-7.831 0.391-9.257 1.293c-1.426 0.902-1.667 2.397-2.848 4.482-1.163 1.38-2.445 2.886-2.771 2.628-0.324-0.257-1.439-2.128-1.439-2.128s-1.859-1.379-4.215-2.517c-0.384-0.603-0.652-1.057-0.749-1.275-0.549-1.244-2.145-7-2.145-7-0.215-1.237-0.613-3.506-0.494-3.659C-61.893 358.204-61.385 358.327-61.18 358.081zM-3.047 355.817c0.014-0.389 0.021-0.779 0.021-1.162v-12.756c0.036-0.008 0.072-0.017 0.11-0.025 0.257-0.061 0.496-0.096 0.71-0.096 0.339 0 1.237 0 1.769 1.746C0.613 346.959-0.808 353.058-3.047 355.817zM-19.483 328.575c0.691-1.711 1.714-4.217 2.416-5.921 0.176-0.428 0.42-0.726 0.546-0.666 0.125 0.059 0.086 0.45-0.087 0.875-0.001 0.002-0.002 0.005-0.004 0.007-0.696 1.693-1.715 4.19-2.402 5.889-0.002 0.005-0.002 0.007-0.003 0.009-0.174 0.426-0.417 0.726-0.546 0.676C-19.692 329.392-19.657 329.003-19.483 328.575zM-50.293 324c-0.227-0.399-0.316-0.782-0.2-0.856 0.117-0.076 0.398 0.188 0.628 0.589 0.916 1.6 2.253 3.953 3.159 5.561 0.228 0.403 0.313 0.783 0.191 0.852-0.122 0.066-0.401-0.201-0.629-0.601-0.001-0.002-0.002-0.004-0.004-0.009-0.9-1.596-2.232-3.94-3.142-5.53C-50.292 324.005-50.292 324.002-50.293 324zM-28.965 357.705c0 0.028 0.006 0.26 0.006 0.29 0 2.915-1.312 4.915-1.848 5.086-0.461 0.147-0.56 0.146-0.866-0.143-0.514 1.158-1.579 2.191-2.34 2.191-0.762 0-2.052-1.138-2.564-2.296-0.705-0.015-0.271 0.077-0.833-0.07-1.339-0.349-1.657-1.752-1.657-4.667 0-0.028 0.005-0.26 0.006-0.29 0.021-0.803 0.344-1.407 0.711-1.37 0.37 0.049 0.653 0.74 0.631 1.546-0.002 1.424 0.027 3.209 0.63 3.209 0.259 0 0.047-0.336 0.242-0.703 0.154-0.281 0.358-0.402 0.557-0.33 0.198 0.076 0.372 0.345 0.47 0.728 0.249 0.968 1.296 1.915 1.808 1.915 0.513 0 1.332-0.84 1.582-1.81 0.098-0.383 0.271-0.648 0.469-0.725 0.193-0.083 0.36 0.062 0.47 0.302 0.109 0.24 0.104 0.862 0.428 0.777 0.324-0.084 0.542-1.991 0.761-3.352 0.124-0.777 0.285-1.535 0.651-1.56C-29.326 356.43-28.986 356.917-28.965 357.705zM-14.312 339.787c-3.396-0.892-10.442-0.814-13.005 0.142-0.171 0.065-0.351 0.096-0.525 0.096-0.514 0-1.003-0.259-1.22-0.691-0.292-0.582 0.02-1.256 0.691-1.508 3.156-1.179 10.78-1.297 14.831-0.23 0.701 0.184 1.098 0.824 0.884 1.43C-12.871 339.631-13.614 339.973-14.312 339.787zM-37.238 339.363c-0.226 0.418-0.733 0.669-1.268 0.669-0.181 0-0.367-0.03-0.546-0.093-2.661-0.924-9.977-0.999-13.498-0.137-0.726 0.181-1.499-0.15-1.721-0.736-0.223-0.585 0.188-1.205 0.917-1.382 4.21-1.031 12.123-0.917 15.396 0.222C-37.256 338.148-36.936 338.801-37.238 339.363zM-15.567 347.03c0.393 0.487 1.139 2.327 0.001 2.42-0.339 0.005-0.525-0.18-0.651-0.447-0.569-1.2-1.808-2.108-3.303-2.512 0.302 0.377 0.489 0.848 0.489 1.369 0 1.219-0.988 2.207-2.205 2.207-1.216 0-2.204-0.988-2.204-2.207 0-0.521 0.188-0.992 0.489-1.369-1.495 0.403-2.734 1.311-3.303 2.512-0.197 0.416-0.693 0.591-1.105 0.396-0.412-0.196-0.589-0.69-0.394-1.104 1.063-2.241 3.621-3.69 6.517-3.69C-18.935 344.604-16.644 345.628-15.567 347.03zM-39.983 348.277c0.19 0.405 0.019 0.889-0.387 1.082-0.113 0.054-0.231 0.079-0.349 0.079-0.304 0-0.596-0.173-0.733-0.466-0.558-1.177-1.771-2.066-3.233-2.462 0.294 0.371 0.479 0.832 0.479 1.341 0 1.194-0.969 2.163-2.161 2.163-1.194 0-2.162-0.968-2.162-2.163 0-0.509 0.184-0.971 0.479-1.341-1.464 0.396-2.676 1.284-3.233 2.462-0.192 0.407-0.678 0.578-1.082 0.387-0.133-0.063-0.229-0.165-0.309-0.277 0 0-0.227-0.484 0-0.939 1.097-2.119 3.531-3.483 6.308-3.483C-43.531 344.66-41.025 346.08-39.983 348.277zM-39.795 377.694c1.341 0.135 3.22 0.9 5.213 1.005 2.109 0.111 4.324-0.456 5.331-1.005 1.961-1.067-0.476 4.219-5.481 4.219C-37.316 381.913-42.554 377.417-39.795 377.694z" fill="#e8772e" data-fill-palette-color="accent"></path></svg></g></svg></g><g></g></svg></g></svg></g></svg></g></svg></g><defs></defs></svg><rect width="320" height="360" fill="none" stroke="none" visibility="hidden"></rect></g></svg></g></svg>